<svg xmlns="http://www.w3.org/2000/svg" width="191" height="107" viewBox="0 0 191 107" fill="none">
    <g clip-path="url(#clip0_564_27527)">
        <path d="M79.9759 47.945C74.9764 42.955 72.1677 36.1871 72.1677 29.1302C72.1677 22.0733 74.9764 15.3055 79.9759 10.3155C84.9754 5.32548 91.7562 2.52214 98.8266 2.52214C105.897 2.52214 112.678 5.32548 117.677 10.3155L125.434 18.0574L133.18 10.3155C138.18 5.32267 144.961 2.51664 152.034 2.51465C159.106 2.51266 165.89 5.31489 170.892 10.3049C175.894 15.2949 178.706 22.0638 178.708 29.1227C178.71 36.1816 175.902 42.9522 170.903 47.945L164.928 53.9183L125.445 93.3271L79.9759 47.945Z" fill="#F24E1E"/>
        <path d="M178.702 29.1354C178.709 32.6291 178.024 36.0898 176.686 39.3181C175.347 42.5463 173.382 45.4782 170.903 47.9448L164.918 53.9287L125.455 93.3375L79.9759 47.9448C74.9764 42.9548 72.1677 36.187 72.1677 29.1301C72.1677 22.0732 74.9764 15.3053 79.9759 10.3153C84.9754 5.32532 91.7562 2.52198 98.8266 2.52198C105.897 2.52198 112.678 5.32532 117.677 10.3153L125.423 18.0467L133.191 10.3153C135.667 7.84375 138.606 5.88319 141.842 4.54559C145.077 3.20799 148.545 2.51953 152.047 2.51953C155.548 2.51953 159.016 3.20799 162.251 4.54559C165.487 5.88319 168.426 7.84375 170.903 10.3153C171.327 10.7389 171.741 11.1838 172.123 11.6392C176.381 16.4747 178.721 22.6975 178.702 29.1354Z" fill="#F24E1E"/>
        <path d="M182.511 18.2906C180.859 16.6689 179.021 15.247 177.036 14.0543C175.847 12.065 174.422 10.2264 172.791 8.57876C170.081 5.87281 166.864 3.72625 163.323 2.26173C159.782 0.797203 155.986 0.0434095 152.153 0.0434095C148.32 0.0434095 144.524 0.797203 140.983 2.26173C137.441 3.72625 134.224 5.87281 131.514 8.57876L125.423 14.5097L119.46 8.5364C116.751 5.83077 113.534 3.68444 109.994 2.22006C106.454 0.755679 102.659 0.00195313 98.8266 0.00195312C94.9943 0.00195313 91.1995 0.755679 87.6591 2.22006C84.1188 3.68444 80.9022 5.83077 78.1933 8.5364C77.3191 9.39653 76.5105 10.3205 75.7739 11.3006C71.4552 8.86472 66.5529 6.6724 60.3878 6.6724C53.0556 6.6724 48.5246 9.65903 44.0892 12.5821C40.0463 15.2404 36.1945 17.7293 30.1992 17.7293C24.2039 17.7293 20.3309 15.2404 16.2774 12.5821C11.8526 9.65903 7.27922 6.6724 0 6.6724L0 11.6501C5.77244 11.6501 9.359 14.0119 13.5079 16.7126C17.6569 19.4133 22.6759 22.7176 30.1992 22.7176C37.7225 22.7176 42.5718 19.5404 46.8693 16.7126C51.1668 13.8848 54.6154 11.6501 60.3878 11.6501C65.2477 11.6501 69.2587 13.387 73.0257 15.484C71.3984 18.5456 70.338 21.875 69.8954 25.3124C66.8553 24.1107 63.6152 23.4926 60.3454 23.4908C53.0556 23.4908 48.4822 26.488 44.0467 29.3899C40.0039 32.0376 36.1521 34.5583 30.1568 34.5583C24.1615 34.5583 20.2884 32.0376 16.235 29.3899C11.8526 26.5304 7.27922 23.5331 0 23.5331L0 28.5956C5.77244 28.5956 9.359 30.9468 13.5079 33.658C17.6569 36.3693 22.6759 39.6631 30.1992 39.6631C37.7225 39.6631 42.5718 36.4858 46.8693 33.658C51.1668 30.8303 54.6154 28.5956 60.3878 28.5956C63.6095 28.6279 66.7866 29.3503 69.7044 30.7138C69.9414 35.3662 71.299 39.8929 73.6623 43.91C69.5936 41.6699 65.0341 40.4658 60.3878 40.4045C53.0556 40.3939 48.5246 43.4229 44.0892 46.3036C40.0463 48.9513 36.1945 51.472 30.1992 51.472C24.2039 51.472 20.3309 48.9513 16.2774 46.3036C11.8526 43.4229 7.27922 40.3939 0 40.3939L0 45.4351C5.77244 45.4351 9.359 47.7863 13.5079 50.4976C17.6569 53.2089 22.6759 56.4921 30.1992 56.4921C37.7225 56.4921 42.5718 53.3148 46.8693 50.4976C51.1668 47.6804 54.6154 45.4351 60.3878 45.4351C66.7545 45.4351 71.5932 48.3476 76.3045 51.1754C78.5713 52.6137 80.9444 53.8776 83.4033 54.9564L83.5201 55.0729L95.7016 67.2101C94.0794 67.9135 92.3343 68.2914 90.5658 68.3221C86.6291 68.3221 83.0638 66.2039 78.8936 63.7362C73.8321 60.7072 68.0915 57.2546 60.3772 57.2546C53.0874 57.2546 48.514 60.2624 44.0786 63.1643C40.0357 65.8226 36.1839 68.3221 30.1886 68.3221C24.1933 68.3221 20.3203 65.8226 16.2668 63.1643C11.8526 60.2624 7.27922 57.2546 0 57.2546L0 62.2747C5.77244 62.2747 9.359 64.6471 13.5079 67.3477C17.6569 70.0484 22.6759 73.3528 30.1992 73.3528C37.7225 73.3528 42.5718 70.1755 46.8693 67.3477C51.1668 64.52 54.6154 62.2747 60.3878 62.2747C66.7545 62.2747 71.5932 65.219 76.3045 68.0361C80.6869 70.6415 85.1966 73.3316 90.534 73.3316C93.671 73.2519 96.7455 72.4394 99.511 70.9592L105.485 76.9219L106.546 77.981C105.018 78.7965 103.564 79.665 102.174 80.4911C98.0361 82.9693 94.4707 85.0981 90.5022 85.0981C86.5336 85.0981 83.0001 82.9799 78.8299 80.4911C73.8427 77.5574 68.1021 74.1365 60.3878 74.1365C53.0556 74.1365 48.5246 77.1337 44.0892 80.0251C40.0463 82.6834 36.1945 85.1934 30.1992 85.1934C24.2039 85.1934 20.3309 82.6834 16.2774 80.0251C11.8526 77.1337 7.27922 74.1365 0 74.1365L0 79.1566C5.77244 79.1566 9.359 81.5078 13.5079 84.2297C17.6569 86.9515 22.6759 90.2347 30.1992 90.2347C37.7225 90.2347 42.5718 87.0574 46.8693 84.2297C51.1668 81.4019 54.6154 79.1566 60.3878 79.1566C66.7545 79.1566 71.5932 82.0903 76.3045 84.9181C80.6869 87.5234 85.1966 90.2135 90.534 90.2135C95.8714 90.2135 100.402 87.5022 104.795 84.9181C106.578 83.859 108.392 82.7999 110.302 81.8149L110.398 81.8997L119.439 90.9443C112.892 91.262 108.584 94.1216 104.424 96.8117C100.264 99.5018 96.5611 101.969 90.5658 101.969C86.6291 101.969 83.0638 99.8512 78.8936 97.3624C73.8321 94.3334 68.0915 90.9019 60.3772 90.9019C53.0874 90.9019 48.514 93.9098 44.0786 96.8011C40.0357 99.4594 36.1839 101.969 30.1886 101.969C24.1933 101.969 20.3203 99.4594 16.2668 96.8011C11.8526 93.9098 7.27922 90.9019 0 90.9019L0 95.922C5.77244 95.922 9.359 98.2838 13.5079 100.995C17.6569 103.706 22.6759 106.968 30.1992 106.968C37.7225 106.968 42.5718 103.791 46.8693 100.963C51.1668 98.1355 54.6154 95.8903 60.3878 95.8903C66.7545 95.8903 71.5932 98.8239 76.3045 101.652C80.6869 104.257 85.1966 106.947 90.534 106.947C98.0467 106.947 102.907 103.77 107.193 100.942C111.48 98.1143 114.95 95.8691 120.712 95.8691C122.118 95.8711 123.52 96.0238 124.893 96.3245L125.402 96.8328L135.186 106.587L176.495 65.452L182.511 59.4787C187.981 54.0154 191.053 46.608 191.053 38.8847C191.053 31.1613 187.981 23.754 182.511 18.2906ZM75.1161 33.5945C74.1177 28.3157 74.9131 22.8553 77.3762 18.0788C78.1496 16.5746 79.0778 15.1548 80.1457 13.8424C80.6493 13.2129 81.1915 12.6151 81.7692 12.0526C86.2986 7.54352 92.4347 5.01134 98.8319 5.01134C105.229 5.01134 111.365 7.54352 115.895 12.0526L121.869 18.0047L125.423 21.5526L128.989 18.0047L134.963 12.042C139.51 7.61377 145.622 5.15224 151.975 5.19078C158.328 5.22931 164.41 7.7648 168.903 12.2479C173.396 16.7309 175.938 22.8004 175.979 29.1413C176.019 35.4821 173.555 41.5836 169.12 46.1236L163.156 52.0968L125.445 89.7793L111.48 75.8417L104.053 68.428L102.143 66.5111L90.4703 54.8611L87.6478 52.0227L86.1622 50.5506L81.6843 46.06C78.2924 42.656 76.004 38.3129 75.1161 33.5945Z" fill="black"/>
        <path d="M112.064 37.3121C114.795 37.3121 117.009 35.1025 117.009 32.3768C117.009 29.651 114.795 27.4414 112.064 27.4414C109.333 27.4414 107.119 29.651 107.119 32.3768C107.119 35.1025 109.333 37.3121 112.064 37.3121Z" fill="black"/>
        <path d="M138.825 37.3121C141.556 37.3121 143.77 35.1025 143.77 32.3768C143.77 29.651 141.556 27.4414 138.825 27.4414C136.094 27.4414 133.88 29.651 133.88 32.3768C133.88 35.1025 136.094 37.3121 138.825 37.3121Z" fill="black"/>
        <path d="M125.445 65.3987C119.359 65.428 113.454 63.3414 108.743 59.4973C104.032 55.6532 100.809 50.2915 99.6277 44.3334C99.5578 43.9858 99.5615 43.6275 99.6386 43.2815C99.7157 42.9355 99.8644 42.6093 100.075 42.3241C100.286 42.0388 100.554 41.8008 100.863 41.6251C101.171 41.4495 101.513 41.3403 101.867 41.3044C102.507 41.2524 103.143 41.4408 103.652 41.8325C104.16 42.2243 104.503 42.7913 104.615 43.4226C105.604 48.1939 108.211 52.479 111.997 55.5554C115.783 58.6319 120.515 60.3118 125.397 60.3118C130.279 60.3118 135.011 58.6319 138.797 55.5554C142.582 52.479 145.189 48.1939 146.179 43.4226C146.29 42.7913 146.634 42.2243 147.142 41.8325C147.65 41.4408 148.287 41.2524 148.927 41.3044C149.28 41.337 149.623 41.4425 149.934 41.6141C150.244 41.7858 150.516 42.0198 150.731 42.3014C150.947 42.5831 151.101 42.9062 151.185 43.2505C151.269 43.5948 151.281 43.9527 151.219 44.3016C150.042 50.2566 146.827 55.6177 142.125 59.4667C137.423 63.3156 131.526 65.4127 125.445 65.3987Z" fill="black"/>
    </g>
    <defs>
        <clipPath id="clip0_564_27527">
            <rect width="191" height="107" fill="white"/>
        </clipPath>
    </defs>
</svg>